<svg xmlns="http://www.w3.org/2000/svg">

    <symbol  id="arrow-right" viewBox="0 0 41 8" fill="none">
    <path d="M40.3536 4.03544C40.5488 3.84018 40.5488 3.52359 40.3536 3.32833L37.1716 0.146351C36.9763 -0.0489113 36.6597 -0.0489113 36.4645 0.146351C36.2692 0.341613 36.2692 0.658195 36.4645 0.853458L39.2929 3.68188L36.4645 6.51031C36.2692 6.70557 36.2692 7.02216 36.4645 7.21742C36.6597 7.41268 36.9763 7.41268 37.1716 7.21742L40.3536 4.03544ZM0 3.68188V4.18188H40V3.68188V3.18188H0V3.68188Z" fill="#94FF37"/>
    </symbol>
    <symbol id="arrow-right-black"  viewBox="0 0 31 8" fill="none">
        <path d="M30.3536 4.03544C30.5488 3.84018 30.5488 3.52359 30.3536 3.32833L27.1716 0.146351C26.9763 -0.0489113 26.6597 -0.0489113 26.4645 0.146351C26.2692 0.341613 26.2692 0.658195 26.4645 0.853458L29.2929 3.68188L26.4645 6.51031C26.2692 6.70557 26.2692 7.02216 26.4645 7.21742C26.6597 7.41268 26.9763 7.41268 27.1716 7.21742L30.3536 4.03544ZM0 3.68188V4.18188H30V3.68188V3.18188H0V3.68188Z" fill="#302E2E" />
    </symbol>
</svg>
